<?xml version="1.0" encoding="UTF-8"?>
<svg id="Layer_1" xmlns="http://www.w3.org/2000/svg" version="1.1" viewBox="0 0 1190.6 438.9">
  <!-- Generator: Adobe Illustrator 30.2.0, SVG Export Plug-In . SVG Version: 2.1.1 Build 105)  -->
  <defs>
    <style>
      .st0, .st1 {
        fill: #010101;
      }

      .st2 {
        fill: #23a358;
      }

      .st1, .st3 {
        stroke: #010101;
        stroke-miterlimit: 10;
      }

      .st3 {
        fill: none;
        stroke-width: 3px;
      }
    </style>
  </defs>
  <g>
    <path class="st2" d="M379.5,131c-17.8,59-54.1,129-127.6,178.2-46.1,30.9-93.5,44.6-133.2,50.1,29.9,23.4,67.6,37.3,108.5,37.3,97.4,0,176.4-79,176.4-176.4s-8.8-63.1-24.2-89.2Z"/>
    <path class="st2" d="M203.7,163.4c63.6-17.7,110.4-49.2,140.8-75-31.2-27.7-72.2-44.6-117.2-44.6-81.4,0-149.9,55.2-170.3,130.1,35.9,4.6,87.7,5.9,146.6-10.5Z"/>
    <path class="st2" d="M369.1,115.3c-5.7-7.7-12.1-14.9-18.9-21.6-27.9,34.1-77.2,81-152.5,105.9-58,19.2-110.3,18.3-146.6,13.6,0,2.3-.2,4.7-.2,7,0,24.3,4.9,47.5,13.8,68.6,39.7,6,96.6,6.8,156-18.9,80-34.5,124.3-99.5,148.4-154.7Z"/>
  </g>
  <g>
    <path class="st1" d="M476.7,125.7h83.6v13.6h-83.6v-13.6ZM510.4,137.6h16.3v67.4h-16.3v-67.4Z"/>
    <path class="st1" d="M585.4,171.9v19.5h61.2v13.6h-77.5v-79.3h77.3v13.6h-61v19.7h50v12.9h-50Z"/>
    <path class="st1" d="M752.8,176.5c-.7,6.4-3,11.8-6.7,16.3-3.8,4.5-8.9,7.9-15.3,10.3-6.5,2.4-14.1,3.6-23,3.6s-14.2-.9-20.4-2.6c-6.2-1.7-11.5-4.3-15.9-7.7-4.5-3.4-7.9-7.7-10.4-12.8-2.5-5.1-3.7-11.1-3.7-18s1.2-12.9,3.7-18,5.9-9.5,10.4-12.9c4.5-3.5,9.8-6.1,15.9-7.8,6.2-1.8,13-2.6,20.4-2.6s16.6,1.2,23.1,3.7,11.6,5.9,15.4,10.5c3.8,4.5,6,10,6.6,16.5h-16.2c-1.1-3.4-2.8-6.4-5.3-8.9-2.5-2.5-5.7-4.4-9.6-5.7-3.9-1.3-8.6-2-14-2s-12.6,1-17.6,3.1c-5.1,2.1-9,5.1-11.8,9.2-2.8,4-4.2,9-4.2,15s1.4,10.8,4.2,14.8c2.8,4,6.7,7,11.8,9.1,5.1,2.1,10.9,3.1,17.6,3.1s10-.7,13.9-2c3.9-1.3,7.1-3.2,9.6-5.6,2.5-2.5,4.3-5.3,5.5-8.6h16.2Z"/>
    <path class="st1" d="M765.7,125.7h16.3v79.3h-16.3v-79.3ZM780,158.5h62.9v13.6h-62.9v-13.6ZM840.2,125.7h16.3v79.3h-16.3v-79.3Z"/>
    <path class="st1" d="M478.4,300.9h16.5c.3,2.8,1.6,5.3,3.9,7.5,2.2,2.2,5.2,4,8.9,5.3,3.7,1.3,7.8,1.9,12.4,1.9s7.6-.4,10.3-1.3c2.7-.9,4.7-2.2,6-3.8,1.3-1.6,2-3.6,2-5.9s-.8-3.9-2.5-5.1c-1.6-1.2-4.2-2.2-7.7-2.9-3.5-.8-8.1-1.6-13.8-2.4-4.5-.7-8.7-1.6-12.7-2.8-4-1.2-7.5-2.7-10.6-4.6-3.1-1.9-5.5-4.2-7.2-6.9-1.8-2.7-2.6-6-2.6-9.7s1.3-8.7,4-12.3c2.7-3.5,6.6-6.2,11.8-8.2,5.2-2,11.6-2.9,19.2-2.9,11.4,0,20.2,2.4,26.4,7.3,6.2,4.9,9.2,11.5,9,20h-15.9c-.3-4.8-2.3-8.3-6.1-10.4-3.7-2.1-8.4-3.2-14-3.2s-9.5.8-12.9,2.3c-3.4,1.6-5.1,4.2-5.1,8s.4,2.8,1.2,3.9c.8,1.1,2.2,2.1,4.2,2.9,2,.8,4.6,1.6,8,2.3,3.3.7,7.5,1.5,12.5,2.2,4.7.7,8.9,1.5,12.7,2.6s7.1,2.5,9.8,4.3c2.7,1.8,4.8,4,6.3,6.7s2.2,6,2.2,9.9-1.2,9-3.7,12.6c-2.5,3.6-6.3,6.3-11.5,8.3-5.2,2-11.9,2.9-20.2,2.9s-11.1-.6-15.6-1.9c-4.5-1.3-8.4-3-11.6-5.1-3.3-2.1-5.9-4.5-8-7-2-2.5-3.5-5.1-4.4-7.6-.9-2.5-1.2-4.8-1-6.9Z"/>
    <path class="st1" d="M638.5,292.5v-44.2h16.3v46c0,5.2-.8,9.8-2.3,13.7-1.5,3.9-3.7,7.2-6.4,9.9-2.8,2.7-6,4.9-9.7,6.6-3.7,1.7-7.8,2.9-12.1,3.6-4.4.7-9,1.1-13.8,1.1s-9.7-.4-14.2-1.1c-4.5-.7-8.6-1.9-12.3-3.6-3.7-1.7-6.9-3.9-9.6-6.6s-4.8-6-6.3-9.9c-1.5-3.9-2.3-8.5-2.3-13.7v-46h16.3v44.2c0,6.2,1.2,10.9,3.7,14.2,2.5,3.2,5.8,5.4,10.1,6.6,4.3,1.2,9.2,1.8,14.6,1.8s10.1-.6,14.3-1.8c4.2-1.2,7.6-3.4,10.1-6.6,2.5-3.2,3.7-7.9,3.7-14.2Z"/>
    <path class="st1" d="M684.7,301.8v-13h36.3c4.3,0,7.8-1.2,10.3-3.5,2.5-2.3,3.8-5.6,3.8-9.7s-1.3-7.6-3.8-9.9c-2.5-2.3-6-3.4-10.3-3.4h-34.3v65.3h-16.3v-79.3h49.1c4.4,0,8.6.5,12.4,1.6,3.9,1.1,7.3,2.7,10.2,4.9,2.9,2.2,5.2,5,6.8,8.5,1.6,3.4,2.5,7.6,2.5,12.4s-.8,8.8-2.5,12.1c-1.6,3.4-3.9,6.1-6.8,8.1-2.9,2.1-6.3,3.6-10.2,4.5-3.9.9-8,1.4-12.4,1.4h-34.8Z"/>
    <path class="st1" d="M777.7,301.8v-13h36.3c4.3,0,7.8-1.2,10.3-3.5,2.5-2.3,3.8-5.6,3.8-9.7s-1.3-7.6-3.8-9.9c-2.5-2.3-6-3.4-10.3-3.4h-34.3v65.3h-16.3v-79.3h49.1c4.4,0,8.6.5,12.4,1.6,3.9,1.1,7.3,2.7,10.2,4.9,2.9,2.2,5.2,5,6.8,8.5,1.6,3.4,2.5,7.6,2.5,12.4s-.8,8.8-2.5,12.1c-1.6,3.4-3.9,6.1-6.8,8.1-2.9,2.1-6.3,3.6-10.2,4.5-3.9.9-8,1.4-12.4,1.4h-34.8Z"/>
    <path class="st1" d="M903.8,329.2c-10.5,0-19.5-1.7-27-5-7.5-3.3-13.2-8-17.2-14.2-4-6.1-5.9-13.5-5.9-22.1s2-16.1,5.9-22.2c4-6.1,9.7-10.8,17.2-14.2,7.5-3.3,16.5-5,27-5s19.6,1.7,27.1,5c7.4,3.3,13.1,8,17.1,14.2,4,6.1,5.9,13.5,5.9,22.2s-2,15.9-5.9,22.1c-4,6.1-9.7,10.8-17.1,14.2-7.4,3.3-16.5,5-27.1,5ZM903.8,315.1c6.5,0,12.3-1,17.2-2.9,4.9-2,8.8-4.9,11.6-8.9,2.8-4,4.2-9.1,4.2-15.2s-1.4-11.2-4.2-15.2c-2.8-4-6.7-7-11.6-9-4.9-2-10.7-3-17.2-3s-12.2,1-17.3,3c-5.1,2-9,5-11.9,9-2.9,4-4.3,9.1-4.3,15.2s1.4,11.2,4.3,15.2c2.9,4,6.8,7,11.9,8.9,5.1,2,10.8,2.9,17.3,2.9Z"/>
    <path class="st1" d="M966.8,327.6v-79.3h53.8c6.1,0,11.5.8,16,2.5,4.5,1.7,8.1,4.3,10.6,7.8,2.5,3.6,3.8,8.1,3.8,13.7s-.7,6.9-2,9.6c-1.3,2.6-3.1,4.7-5.5,6.4-2.3,1.6-5,2.9-8,3.7-3,.9-6.2,1.4-9.7,1.7l-1.7-1c5.7,0,10.4.6,14.1,1.4,3.7.9,6.4,2.4,8.3,4.7,1.8,2.2,2.8,5.6,2.8,10v18.9h-16.3v-17.8c0-3-.5-5.4-1.6-7-1.1-1.7-3-2.8-5.7-3.5-2.7-.7-6.7-1-11.8-1h-30.8v29.3h-16.3ZM983.1,285.5h37.5c4.6,0,8.1-1.1,10.5-3.3,2.4-2.2,3.6-5.2,3.6-8.9s-1.2-6.3-3.6-8.2c-2.4-1.9-5.9-2.8-10.5-2.8h-37.5v23.3Z"/>
    <path class="st1" d="M1058,248.3h83.6v13.6h-83.6v-13.6ZM1091.7,260.2h16.3v67.4h-16.3v-67.4Z"/>
  </g>
  <g>
    <circle class="st3" cx="973.6" cy="167.5" r="29"/>
    <g>
      <path class="st0" d="M954.2,158.8h14.9v2.4h-14.9v-2.4ZM960.4,160.9h2.7v13.5h-2.7v-13.5Z"/>
      <path class="st0" d="M981.8,173h-1.2l8.3-14.1h2.7v15.6h-2.7v-11.6l.6.2-6.8,11.5h-3l-6.8-11.4.6-.2v11.6h-2.7v-15.6h2.7l8.2,14.1Z"/>
    </g>
  </g>
</svg>